<svg width="20" height="20" xmlns="http://www.w3.org/2000/svg" fill="#000000">

 <g>
  <title>Layer 1</title>
  <path fill="white" stroke="null" id="svg_1" d="m2.80517,0.3333c-0.22707,0 -0.4544,0.0865 -0.62745,0.26l-1.7749,1.7749c-0.34699,0.34699 -0.34699,0.9088 0,1.25491l6.47214,6.47214l-6.47214,6.47214c-0.34699,0.34699 -0.34699,0.9088 0,1.25491l1.7749,1.7749c0.34699,0.34699 0.9088,0.34699 1.25491,0l6.47214,-6.47214l6.47214,6.47214c0.34611,0.34699 0.9088,0.34699 1.25491,0l1.7749,-1.7749c0.34699,-0.34699 0.34699,-0.9088 0,-1.25491l-6.47214,-6.47214l6.47214,-6.47214c0.34699,-0.34611 0.34699,-0.9088 0,-1.25491l-1.7749,-1.7749c-0.34699,-0.34699 -0.9088,-0.34699 -1.25491,0c-2.15738,2.15738 -4.31476,4.31476 -6.47214,6.47214l-6.47214,-6.47214c-0.1735,-0.1735 -0.40038,-0.26 -0.62745,-0.26z"/>
 </g>
</svg>